<svg width="106" height="32" viewBox="0 0 106 32" fill="none" xmlns="http://www.w3.org/2000/svg">
<g clip-path="url(#clip0_398_842)">
<path d="M25.3333 9.33329V13.32C25.3333 13.32 22.68 13.3333 22.6667 13.32V9.33329H18.6667C18.6667 9.33329 18.68 6.67996 18.6667 6.66663H22.6667V2.66663H25.3333V6.66663H29.3333V9.33329H25.3333ZM21.3333 14.6666V10.6666H17.3333V6.66663H6.66667C5.2 6.66663 4 7.86663 4 9.33329V25.3333C4 26.8 5.2 28 6.66667 28H22.6667C24.1333 28 25.3333 26.8 25.3333 25.3333V14.6666H21.3333ZM6.66667 25.3333L10.6667 20L13.3333 24L17.3333 18.6666L22.6667 25.3333H6.66667Z" fill="#FEFEFE"/>
</g>
<path d="M44.878 9.036V11.952C44.878 14.922 43.024 18.054 40.666 19.242L41.584 20.43C44.158 19.062 46.102 15.552 46.102 11.952V9.036H44.878ZM45.148 9.036V11.952C45.148 15.444 47.038 18.774 49.558 20.124L50.476 18.936C48.172 17.784 46.354 14.814 46.354 11.952V9.036H45.148ZM51.898 7.632V23.904H53.41V7.632H51.898ZM53.05 14.22V15.48H56.074V14.22H53.05ZM61.4366 9.414V11.07C61.4366 13.392 59.7806 15.498 57.3326 16.362L58.1066 17.55C60.8426 16.56 62.6786 14.058 62.6786 11.07V9.414H61.4366ZM61.7246 9.414V11.07C61.7246 13.932 63.5966 16.308 66.2966 17.226L67.0706 16.056C64.6586 15.246 62.9666 13.266 62.9666 11.07V9.414H61.7246ZM57.7286 8.982V10.188H66.6386V8.982H57.7286ZM68.9426 7.65V19.548H70.4546V7.65H68.9426ZM59.9966 22.32V23.544H70.9406V22.32H59.9966ZM59.9966 18.432V22.86H61.4726V18.432H59.9966ZM79.9392 17.982V23.922H81.4152V17.982H79.9392ZM73.3332 17.46V18.702H88.0392V17.46H73.3332ZM79.9212 10.422V10.836C79.9212 12.87 77.1852 14.652 74.2512 15.048L74.7732 16.236C78.1932 15.714 81.2352 13.644 81.2352 10.836V10.422H79.9212ZM80.1192 10.422V10.836C80.1192 13.608 83.1432 15.732 86.5452 16.236L87.0852 15.048C84.1692 14.652 81.4152 12.852 81.4152 10.836V10.422H80.1192ZM74.7552 9.63V10.854H86.6172V9.63H74.7552ZM79.9392 7.632V10.062H81.4152V7.632H79.9392ZM100.548 7.614V23.904H102.06V7.614H100.548ZM101.646 14.22V15.462H104.652V14.22H101.646ZM96.3898 9.378V9.612C96.3898 13.914 94.1398 17.388 89.6398 19.674L90.4678 20.826C95.7238 18.18 97.8478 14.004 97.8478 9.378H96.3898ZM90.3958 9.378V10.602H97.1638V9.378H90.3958Z" fill="#FEFEFE"/>
<defs>
<clipPath id="clip0_398_842">
<rect width="32" height="32" fill="white"/>
</clipPath>
</defs>
</svg>
