<svg width="20" height="20" viewBox="0 0 25 20" fill="none" xmlns="http://www.w3.org/2000/svg">
<path d="M2.33337 8C1.22671 8 0.333374 8.89333 0.333374 10C0.333374 11.1067 1.22671 12 2.33337 12C3.44004 12 4.33337 11.1067 4.33337 10C4.33337 8.89333 3.44004 8 2.33337 8ZM2.33337 0C1.22671 0 0.333374 0.893333 0.333374 2C0.333374 3.10667 1.22671 4 2.33337 4C3.44004 4 4.33337 3.10667 4.33337 2C4.33337 0.893333 3.44004 0 2.33337 0ZM2.33337 16C1.22671 16 0.333374 16.9067 0.333374 18C0.333374 19.0933 1.24004 20 2.33337 20C3.42671 20 4.33337 19.0933 4.33337 18C4.33337 16.9067 3.44004 16 2.33337 16ZM6.33337 19.3333H25V16.6667H6.33337V19.3333ZM6.33337 11.3333H25V8.66667H6.33337V11.3333ZM6.33337 0.666667V3.33333H25V0.666667H6.33337Z" fill="#888A8F"/>
</svg>
