<svg width="33" height="32" viewBox="0 0 33 32" fill="none" xmlns="http://www.w3.org/2000/svg">
<g clip-path="url(#clip0_410_2976)">
<path d="M16.4867 2.66675C9.12675 2.66675 3.16675 8.64008 3.16675 16.0001C3.16675 23.3601 9.12675 29.3334 16.4867 29.3334C23.8601 29.3334 29.8334 23.3601 29.8334 16.0001C29.8334 8.64008 23.8601 2.66675 16.4867 2.66675ZM16.5001 26.6667C10.6067 26.6667 5.83341 21.8934 5.83341 16.0001C5.83341 10.1067 10.6067 5.33341 16.5001 5.33341C22.3934 5.33341 27.1667 10.1067 27.1667 16.0001C27.1667 21.8934 22.3934 26.6667 16.5001 26.6667Z" fill="#68696B"/>
<path d="M17.1667 9.33325H15.1667V17.3333L22.1667 21.5333L23.1667 19.8933L17.1667 16.3333V9.33325Z" fill="#68696B"/>
</g>
<defs>
<clipPath id="clip0_410_2976">
<rect width="32" height="32" fill="white" transform="translate(0.5)"/>
</clipPath>
</defs>
</svg>
