<svg width="6" height="22" viewBox="0 0 6 22" fill="none" xmlns="http://www.w3.org/2000/svg">
<path d="M3.00004 5.66671C4.46671 5.66671 5.66671 4.46671 5.66671 3.00004C5.66671 1.53337 4.46671 0.333374 3.00004 0.333374C1.53337 0.333374 0.333374 1.53337 0.333374 3.00004C0.333374 4.46671 1.53337 5.66671 3.00004 5.66671ZM3.00004 8.33337C1.53337 8.33337 0.333374 9.53337 0.333374 11C0.333374 12.4667 1.53337 13.6667 3.00004 13.6667C4.46671 13.6667 5.66671 12.4667 5.66671 11C5.66671 9.53337 4.46671 8.33337 3.00004 8.33337ZM3.00004 16.3334C1.53337 16.3334 0.333374 17.5334 0.333374 19C0.333374 20.4667 1.53337 21.6667 3.00004 21.6667C4.46671 21.6667 5.66671 20.4667 5.66671 19C5.66671 17.5334 4.46671 16.3334 3.00004 16.3334Z" fill="black"/>
</svg>
