<svg width="338" height="217" viewBox="0 0 338 217" fill="none" xmlns="http://www.w3.org/2000/svg">
<path d="M306.46 118.055L218.187 136.301L222.456 109.234C223.006 106.25 225.297 103.897 228.269 103.279L249.349 98.9411C252.255 98.3496 254.533 96.0622 255.136 93.1439L258.173 77.0273L156.153 99.3355C141.384 102.372 130.137 111.259 126.995 127.638L122.556 148.527L152.709 143.071C155.38 142.519 160.251 142.821 157.056 151.563L109.542 161.081L119.912 109.458L84.9533 117.424C70.9962 120.29 58.5972 133.554 55.1014 147.409L49.6285 168.837C48.9346 171.61 49.3274 173.727 46.5386 174.305L25.341 179.471L42.9249 113.191L25.0661 117.674C22.3035 118.239 20.1038 120.329 19.3837 123.063L0.254902 195.641C-1.15914 200.991 3.52815 205.96 8.92245 204.842L60.9015 193.892L97.1953 187.03L172.886 169.836C175.845 169.205 178.136 166.825 178.66 163.828L182.326 137.103C183.687 129.334 176.827 122.63 169.128 124.22L147.642 128.046L149.227 123.813C149.934 121.065 152.146 118.962 154.922 118.384L200.289 109.024L192.643 155.257C191.7 160.45 196.283 164.945 201.441 163.894L310.65 141.323C324.869 138.51 325.236 132.305 326.545 124.417C327.854 116.53 337.019 111.272 337.019 111.272L306.473 118.055H306.46ZM90.112 164.564L68.6002 169.113L72.1877 152.023C76.9666 134.934 96.0954 134.934 96.0954 134.934L90.112 164.564Z" fill="#00DB80"/>
<path d="M296.13 103.2C295.632 106.316 293.236 108.774 290.159 109.339L271.528 112.81C268.975 113.283 266.736 111.048 267.194 108.485L280.382 45.7469L253.594 54.962L259.42 32.6275C260.062 30.1956 261.869 28.25 264.252 27.4481L295.046 17.1156C295.046 17.1156 312.452 11.0161 315.07 0L313.172 11.371L296.143 103.213L296.13 103.2Z" fill="#00DB80"/>
<path d="M134.984 213.114L132.817 213.571L128.484 193.023L130.652 192.566L134.984 213.114ZM135.25 201.764L131.489 202.557L131.102 200.723L134.863 199.93L135.25 201.764ZM117.64 202.651L119.796 202.196L118.712 197.059L120.536 196.675L123.437 210.435L117.612 211.663L114.711 197.903L116.557 197.514L117.64 202.651ZM121.234 209.019L120.161 203.928L118.005 204.382L119.078 209.473L121.234 209.019ZM124.451 201.215L126.561 200.77L125.478 195.633L127.301 195.248L130.202 209.008L124.446 210.222L121.545 196.462L123.368 196.078L124.451 201.215ZM127.999 207.592L126.926 202.501L124.816 202.946L125.889 208.037L127.999 207.592ZM156.428 205.982L137.622 209.947L137.243 208.147L156.048 204.182L156.428 205.982ZM151.99 196.354L139.95 198.893L140.78 202.826L138.612 203.283L137.413 197.595L149.476 195.052L148.867 192.162L136.77 194.713L136.395 192.936L150.637 189.933L151.99 196.354ZM153.475 201.011L138.787 204.108L138.421 202.377L153.11 199.28L153.475 201.011ZM175.634 204.543L173.57 204.979L169.238 184.43L171.302 183.995L175.634 204.543ZM167.555 195.252L162.544 196.309L162.175 194.554L167.185 193.498L167.555 195.252ZM171.092 204.471L169.028 204.906L165.015 185.872L167.079 185.436L171.092 204.471ZM163.094 188.408C163.488 190.313 163.598 192.142 163.425 193.896C163.259 195.647 162.751 197.347 161.901 198.995C161.057 200.635 159.834 202.182 158.233 203.637L156.654 202.341C158.039 201.067 159.114 199.731 159.881 198.332C160.656 196.931 161.132 195.481 161.311 193.982C161.498 192.481 161.422 190.909 161.083 189.263L160.996 188.851L163.094 188.408ZM162.139 190.466L155.454 191.876L155.079 190.098L161.764 188.689L162.139 190.466ZM186.444 185.258C186.687 186.412 186.677 187.536 186.412 188.63C186.155 189.722 185.666 190.731 184.943 191.658C184.226 192.576 183.314 193.343 182.206 193.96L180.791 192.474C181.766 191.949 182.579 191.314 183.228 190.571C183.878 189.827 184.325 189.03 184.569 188.18C184.82 187.329 184.857 186.479 184.678 185.63L184.494 184.759L186.26 184.386L186.444 185.258ZM186.822 185.178C186.985 185.95 187.345 186.653 187.901 187.286C188.456 187.911 189.167 188.424 190.034 188.824C190.909 189.223 191.889 189.459 192.974 189.534L192.327 191.407C191.071 191.32 189.934 191.021 188.916 190.509C187.896 189.99 187.054 189.305 186.387 188.455C185.729 187.604 185.285 186.636 185.056 185.55L184.873 184.679L186.638 184.307L186.822 185.178ZM191.255 183.992L180.155 186.332L179.785 184.578L190.885 182.238L191.255 183.992ZM186.609 183.941L184.419 184.403L183.759 181.273L185.949 180.811L186.609 183.941ZM197.38 190.892L195.213 191.349L192.711 179.481L194.878 179.024L197.38 190.892ZM199.293 185.136L195.692 185.895L195.31 184.083L198.911 183.324L199.293 185.136ZM192.046 194.388C192.266 195.436 192.148 196.467 191.692 197.481C191.235 198.496 190.495 199.418 189.473 200.248C188.452 201.086 187.246 201.768 185.856 202.293L184.693 200.813C185.893 200.368 186.938 199.813 187.827 199.146C188.722 198.47 189.381 197.753 189.804 196.993C190.234 196.231 190.374 195.491 190.222 194.773L190.106 194.222L191.93 193.838L192.046 194.388ZM192.504 194.292C192.652 194.995 193.077 195.608 193.778 196.131C194.479 196.654 195.373 197.048 196.459 197.314C197.553 197.579 198.734 197.673 200.004 197.597L199.565 199.438C198.074 199.521 196.687 199.382 195.406 199.021C194.124 198.661 193.062 198.11 192.219 197.37C191.375 196.622 190.843 195.728 190.624 194.688L190.508 194.138L192.388 193.741L192.504 194.292ZM198.298 193.597L184.653 196.474L184.285 194.731L197.931 191.854L198.298 193.597ZM216.843 182.489L202.659 185.48L202.296 183.76L216.481 180.769L216.843 182.489ZM219.892 186.385L201.087 190.35L200.72 188.607L219.525 184.643L219.892 186.385ZM204.647 184.174L202.48 184.631L201.184 178.485L203.352 178.028L204.647 184.174ZM219.555 194.78L205.118 197.824L204.741 196.035L219.177 192.992L219.555 194.78ZM207.028 196.092L204.85 196.551L203.851 191.816L206.03 191.356L207.028 196.092ZM243.593 180.754L241.517 181.191L239.1 169.725L241.175 169.287L243.593 180.754ZM237.919 177.303L234.686 177.985L234.318 176.242L237.552 175.56L237.919 177.303ZM239.736 181.375L237.683 181.808L235.377 170.869L237.429 170.436L239.736 181.375ZM244.763 186.304L233.182 188.745L233.639 190.913L231.471 191.37L230.688 187.654L242.292 185.208L241.961 183.637L230.323 186.091L229.984 184.485L243.767 181.579L244.763 186.304ZM246.184 189.465L231.713 192.516L231.368 190.876L245.838 187.825L246.184 189.465ZM234.437 174.42L224.289 176.56L223.936 174.886L234.084 172.746L234.437 174.42ZM229.521 176.211C230.354 176.036 231.126 176.021 231.835 176.167C232.543 176.305 233.131 176.596 233.6 177.04C234.075 177.475 234.383 178.029 234.525 178.701C234.669 179.382 234.611 180.017 234.352 180.606C234.099 181.187 233.678 181.687 233.087 182.106C232.496 182.519 231.782 182.809 230.948 182.977C230.116 183.16 229.346 183.183 228.638 183.044C227.937 182.897 227.349 182.61 226.876 182.183C226.401 181.748 226.092 181.19 225.948 180.51C225.806 179.837 225.865 179.206 226.124 178.616C226.381 178.019 226.802 177.515 227.386 177.105C227.976 176.685 228.688 176.387 229.521 176.211ZM229.85 177.771C229.374 177.863 228.973 178.024 228.646 178.252C228.317 178.473 228.083 178.746 227.944 179.071C227.805 179.396 227.774 179.742 227.852 180.108C227.931 180.483 228.099 180.791 228.358 181.032C228.616 181.273 228.941 181.432 229.333 181.509C229.723 181.578 230.154 181.563 230.628 181.463C231.095 181.365 231.492 181.205 231.821 180.984C232.156 180.754 232.392 180.476 232.532 180.152C232.671 179.827 232.701 179.477 232.622 179.103C232.544 178.736 232.377 178.432 232.118 178.191C231.86 177.95 231.532 177.796 231.134 177.728C230.743 177.651 230.315 177.665 229.85 177.771ZM230.353 174.874L228.197 175.329L227.518 172.107L229.674 171.652L230.353 174.874ZM254.149 169.582C254.453 171.027 254.352 172.457 253.844 173.874C253.344 175.289 252.543 176.567 251.443 177.709C250.35 178.85 249.086 179.747 247.651 180.401L246.292 178.783C247.54 178.265 248.661 177.522 249.654 176.554C250.648 175.586 251.381 174.521 251.855 173.359C252.336 172.196 252.462 171.071 252.234 169.986L251.91 168.449L253.825 168.045L254.149 169.582ZM254.527 169.502C254.757 170.595 255.328 171.577 256.238 172.447C257.148 173.317 258.253 173.994 259.552 174.479C260.86 174.962 262.192 175.184 263.549 175.145L262.959 177.174C261.39 177.153 259.872 176.846 258.406 176.253C256.938 175.653 255.689 174.806 254.66 173.714C253.632 172.621 252.964 171.349 252.658 169.896L252.334 168.36L254.203 167.966L254.527 169.502ZM266.045 182.667L247.24 186.632L246.86 184.831L265.666 180.867L266.045 182.667ZM281.166 164.915L269.642 167.345L269.268 165.568L280.792 163.138L281.166 164.915ZM271.217 177.313C273.723 176.777 276.023 176.252 278.119 175.738C280.212 175.217 282.168 174.645 283.985 174.022L284.421 175.583C282.586 176.305 280.643 176.938 278.594 177.482C276.551 178.017 274.304 178.55 271.854 179.083L271.217 177.313ZM276.045 176.81L273.935 177.255L271.66 166.465L273.77 166.02L276.045 176.81ZM281.217 175.72L279.13 176.16L276.855 165.369L278.942 164.929L281.217 175.72ZM288.906 180.662L286.738 181.118L282.406 160.57L284.573 160.113L288.906 180.662ZM289.978 169.333L286.171 170.136L285.789 168.324L289.596 167.522L289.978 169.333ZM307.755 168.496L293.421 171.518L293.052 169.763L307.385 166.741L307.755 168.496ZM310.986 173.311L292.18 177.276L291.803 175.488L310.609 171.523L310.986 173.311ZM305.607 159.331L293.705 161.841L295.382 169.799L293.158 170.268L291.098 160.498L305.225 157.52L305.607 159.331ZM306.091 163.9L293.971 166.455L293.608 164.735L305.729 162.18L306.091 163.9ZM329.728 172.114L327.538 172.576L323.194 151.971L325.384 151.509L329.728 172.114ZM325.661 160.265L318.839 161.703L318.461 159.915L325.284 158.476L325.661 160.265ZM314.679 169.467L312.5 169.926L309.809 157.164L311.988 156.705L314.679 169.467ZM313.865 168.393C315.599 168.019 317.191 167.616 318.64 167.183C320.09 166.749 321.529 166.226 322.956 165.614L323.586 167.349C322.109 167.996 320.628 168.544 319.142 168.993C317.654 169.434 316.023 169.842 314.25 170.216L312.633 170.557L312.249 168.734L313.865 168.393Z" fill="#00DB80"/>
</svg>
