<svg viewBox="0 0 1027 580" fill="none" xmlns="http://www.w3.org/2000/svg">
<path d="M797.5 0C767 0 736.589 21.1481 720 47C648.4 4.60002 592 57 589.277 87.5C543.5 69.5 503 106.513 503 144.647C503 182.78 533.938 213.692 572.105 213.692C578.028 213.692 583.783 212.956 589.277 211.546C609.442 243.975 643.588 265.58 686.435 265.58C729.281 265.58 763.396 258.852 782.978 224C796.56 258.714 833.544 266.5 873.107 266.5C920.788 266.5 960.105 230.758 965.707 184.62C1000.19 180.741 1027 151.516 1027 116.019C1027 77.8703 996.062 46.9584 957.88 46.9584C931.607 46.9584 916.5 57 909.5 72C902.702 70.206 895.612 69.1633 888.291 68.9487C877.5 21 841 0 797.5 0Z" fill="#D9D9D9" fill-opacity="0.1"/>
<path d="M602.621 404.301C594.031 403.385 585.614 403.892 577.602 405.607C571.695 379.513 548.568 360.025 520.923 360.025C515.962 360.025 511.155 360.649 506.56 361.838C506.831 359.343 506.966 356.81 506.966 354.257C506.966 315.594 475.904 284.239 437.603 284.239C427.043 284.239 417.063 286.636 408.105 290.884C394.322 257.482 361.677 234 323.589 234C273.048 234 232.083 275.352 232.083 326.371C232.083 333.834 232.991 341.064 234.632 348.021C227.122 349.717 220.056 352.62 213.686 356.557C198.358 327.871 168.339 308.384 133.783 308.384C83.6674 308.384 43.0499 349.385 43.0499 399.975C43.0499 409.29 44.4399 418.293 47.0074 426.77C20.2315 432.032 0 455.826 0 484.394C0 486.421 0.0965244 488.428 0.308878 490.416C0.115829 491.975 0 493.534 0 495.113C0 540.012 79.8836 576.414 178.416 576.414C224.323 576.414 277 554.549 298.5 526.5C323.589 550 375.384 580 425.383 580C475.383 580 517.491 560.168 550 544.5C555.5 554 571.5 562.954 585.807 564.488C629.61 569.184 668.895 537.128 673.548 492.91C678.2 448.693 646.444 409.036 602.641 404.34L602.621 404.301Z" fill="#F9F9FA" fill-opacity="0.15"/>
<path d="M408.218 388.806H405.08V359.056H408.218V388.806ZM411.903 373.15H406.458V370.494H411.903V373.15ZM387.233 369.232H390.354V361.795H392.994V381.717H384.561V361.795H387.233V369.232ZM390.354 379.11V371.739H387.233V379.11H390.354ZM397.095 369.232H400.149V361.795H402.789V381.717H394.455V361.795H397.095V369.232ZM400.149 379.11V371.739H397.095V379.11H400.149ZM440.027 385.187H412.8V382.58H440.027V385.187ZM436.69 370.544H419.258V376.238H416.121V368.004H433.586V363.82H416.071V361.247H436.69V370.544ZM437.387 377.434H416.121V374.927H437.387V377.434ZM467.072 388.806H464.083V359.056H467.072V388.806ZM458.588 373.565H451.333V371.025H458.588V373.565ZM460.796 387.378H457.808V359.819H460.796V387.378ZM454.405 362.774C454.394 365.53 454.012 368.098 453.259 370.478C452.518 372.857 451.317 375.065 449.657 377.102C448.008 379.127 445.86 380.914 443.215 382.464L441.406 380.206C443.697 378.845 445.578 377.306 447.05 375.591C448.533 373.875 449.618 372.005 450.304 369.979C451.001 367.954 451.355 365.752 451.367 363.372V362.774H454.405ZM452.479 365.348H442.8V362.774H452.479V365.348ZM487.692 365.231C487.692 366.903 487.349 368.458 486.663 369.896C485.988 371.335 485.014 372.591 483.741 373.665C482.479 374.728 480.991 375.524 479.275 376.056L477.748 373.582C479.253 373.139 480.565 372.497 481.682 371.656C482.8 370.815 483.652 369.841 484.239 368.734C484.837 367.628 485.135 366.46 485.135 365.231V363.97H487.692V365.231ZM488.24 365.231C488.24 366.349 488.533 367.428 489.12 368.469C489.706 369.498 490.542 370.417 491.627 371.225C492.722 372.033 494.012 372.647 495.495 373.067L494.051 375.475C492.335 374.988 490.846 374.241 489.585 373.233C488.323 372.215 487.355 371.02 486.679 369.647C486.015 368.275 485.683 366.803 485.683 365.231V363.97H488.24V365.231ZM494.731 364.883H478.661V362.343H494.731V364.883ZM488.306 363.455H485.135V358.923H488.306V363.455ZM501.206 376.238H498.068V359.056H501.206V376.238ZM505.539 368.817H500.326V366.194H505.539V368.817ZM492.789 379.525C492.789 381.042 492.324 382.436 491.394 383.709C490.465 384.982 489.17 386.044 487.509 386.896C485.849 387.76 483.979 388.352 481.898 388.673L480.719 386.282C482.512 386.017 484.123 385.552 485.551 384.888C486.989 384.213 488.113 383.41 488.921 382.48C489.74 381.551 490.149 380.566 490.149 379.525V378.729H492.789V379.525ZM493.453 379.525C493.453 380.544 493.862 381.518 494.681 382.447C495.5 383.377 496.624 384.185 498.051 384.871C499.49 385.557 501.101 386.033 502.883 386.299L501.737 388.723C499.645 388.402 497.764 387.804 496.092 386.93C494.421 386.055 493.11 384.982 492.158 383.709C491.206 382.425 490.73 381.031 490.73 379.525V378.729H493.453V379.525ZM501.687 380.256H481.931V377.732H501.687V380.256ZM530.641 370.278H510.105V367.788H530.641V370.278ZM533.729 376.57H506.502V374.047H533.729V376.57ZM513.243 369.05H510.105V360.151H513.243V369.05ZM530.807 388.108H509.906V385.519H530.807V388.108ZM513.06 386.266H509.906V379.409H513.06V386.266ZM568.228 375.69H565.223V359.089H568.228V375.69ZM561.372 369.249H556.69V366.726H561.372V369.249ZM562.7 375.425H559.728V359.587H562.7V375.425ZM568.228 383.726H551.461V386.863H548.323V381.484H565.124V379.21H548.273V376.886H568.228V383.726ZM569.274 388.523H548.323V386.149H569.274V388.523ZM557.387 364.235H542.695V361.812H557.387V364.235ZM550.05 365.281C551.256 365.281 552.33 365.486 553.27 365.896C554.211 366.294 554.942 366.869 555.462 367.622C555.993 368.364 556.259 369.221 556.259 370.195C556.259 371.18 555.993 372.044 555.462 372.785C554.942 373.516 554.211 374.086 553.27 374.495C552.33 374.894 551.256 375.087 550.05 375.076C548.843 375.087 547.77 374.894 546.829 374.495C545.899 374.086 545.169 373.516 544.637 372.785C544.106 372.044 543.841 371.18 543.841 370.195C543.841 369.221 544.106 368.364 544.637 367.622C545.169 366.869 545.899 366.294 546.829 365.896C547.77 365.486 548.843 365.281 550.05 365.281ZM550.05 367.539C549.363 367.528 548.76 367.633 548.24 367.854C547.72 368.065 547.316 368.375 547.028 368.784C546.74 369.194 546.596 369.664 546.596 370.195C546.596 370.738 546.74 371.214 547.028 371.623C547.316 372.033 547.72 372.348 548.24 372.569C548.76 372.78 549.363 372.885 550.05 372.885C550.725 372.885 551.322 372.78 551.843 372.569C552.374 372.348 552.783 372.033 553.071 371.623C553.359 371.214 553.503 370.738 553.503 370.195C553.503 369.664 553.359 369.194 553.071 368.784C552.783 368.375 552.374 368.065 551.843 367.854C551.322 367.633 550.725 367.528 550.05 367.539ZM551.594 363.671H548.472V359.006H551.594V363.671ZM586.125 363.289C586.125 365.381 585.567 367.334 584.449 369.149C583.342 370.965 581.859 372.503 579.999 373.765C578.151 375.026 576.137 375.901 573.956 376.388L572.545 373.748C574.427 373.394 576.198 372.691 577.858 371.64C579.518 370.588 580.846 369.326 581.842 367.854C582.849 366.382 583.353 364.861 583.353 363.289V361.064H586.125V363.289ZM586.673 363.289C586.673 364.872 587.177 366.399 588.184 367.871C589.191 369.343 590.525 370.605 592.185 371.656C593.856 372.708 595.638 373.405 597.531 373.748L596.12 376.388C593.95 375.901 591.936 375.032 590.077 373.781C588.217 372.52 586.734 370.981 585.627 369.166C584.521 367.351 583.967 365.392 583.967 363.289V361.064H586.673V363.289ZM598.792 384.904H571.566V382.298H598.792V384.904ZM624.941 364.717H608.257V362.144H624.941V364.717ZM607.526 378.994C611.156 378.983 614.499 378.928 617.554 378.828C620.608 378.717 623.486 378.496 626.186 378.164L626.336 380.455C623.58 380.92 620.702 381.23 617.703 381.385C614.715 381.529 611.444 381.612 607.891 381.634L607.526 378.994ZM614.366 379.708H611.311V364.086H614.366V379.708ZM621.853 379.708H618.832V364.086H621.853V379.708ZM631.067 388.806H627.929V359.056H631.067V388.806ZM635.865 373.416H630.353V370.793H635.865V373.416ZM660.751 377.45H639.999V374.91H660.751V377.45ZM663.823 385.07H636.596V382.48H663.823V385.07ZM660.453 364.119H643.22V375.641H639.999V361.496H660.453V364.119ZM659.789 370.594H642.241V368.104H659.789V370.594ZM690.153 388.889H686.983V359.056H690.153V388.889ZM687.979 371.274H678.101V368.685H687.979V371.274ZM670.066 380.82H666.911V362.343H670.066V380.82ZM669.252 379.094C671.764 379.083 674.089 378.989 676.225 378.812C678.361 378.634 680.508 378.33 682.666 377.898L683.031 380.488C680.796 380.953 678.582 381.28 676.391 381.468C674.199 381.645 671.82 381.733 669.252 381.733H666.911V379.094H669.252Z" fill="#00DB80"/>
<path d="M675.46 217.055L587.187 235.301L591.456 208.234C592.006 205.25 594.297 202.897 597.269 202.279L618.349 197.941C621.255 197.349 623.533 195.062 624.136 192.144L627.173 176.027L525.153 198.335C510.384 201.372 499.137 210.258 495.995 226.638L491.556 247.526L521.709 242.071C524.38 241.519 529.251 241.821 526.056 250.563L478.542 260.08L488.912 208.457L453.953 216.424C439.996 219.289 427.597 232.553 424.101 246.409L418.628 267.836C417.935 270.61 418.327 272.727 415.539 273.305L394.341 278.471L411.925 212.191L394.066 216.673C391.303 217.239 389.104 219.329 388.384 222.063L369.255 294.64C367.841 299.991 372.528 304.96 377.922 303.842L429.902 292.892L466.195 286.03L541.886 268.835C544.845 268.204 547.136 265.825 547.66 262.828L551.326 236.103C552.687 228.334 545.827 221.629 538.128 223.22L516.642 227.045L518.227 222.812C518.934 220.065 521.146 217.962 523.922 217.383L569.289 208.024L561.643 254.257C560.7 259.449 565.283 263.945 570.441 262.894L679.65 240.322C693.869 237.509 694.236 231.305 695.545 223.417C696.854 215.53 706.019 210.272 706.019 210.272L675.473 217.055H675.46ZM459.112 263.564L437.6 268.112L441.188 251.023C445.967 233.934 465.095 233.934 465.095 233.934L459.112 263.564Z" fill="#00DB80"/>
<path d="M665.13 202.2C664.632 205.316 662.236 207.774 659.159 208.339L640.528 211.81C637.975 212.283 635.736 210.048 636.194 207.485L649.382 144.747L622.594 153.962L628.42 131.627C629.062 129.196 630.869 127.25 633.252 126.448L664.046 116.116C664.046 116.116 681.452 110.016 684.07 99L682.172 110.371L665.143 202.213L665.13 202.2Z" fill="#00DB80"/>
</svg>
