<svg width="142" height="40" viewBox="0 0 142 40" fill="none" xmlns="http://www.w3.org/2000/svg">
<path d="M0.35 39L6.398 0.929998H16.334L11.636 30.738H28.538L27.242 39H0.35ZM40.5779 39.594C38.8499 39.594 37.3019 39.198 35.9339 38.406C34.5659 37.614 33.4679 36.588 32.6399 35.328C31.8479 34.032 31.4519 32.646 31.4519 31.17C31.4519 28.362 32.6579 26.328 35.0699 25.068C37.4819 23.772 41.2259 23.124 46.3019 23.124H49.9739L50.0279 22.638C50.2439 21.45 49.9739 20.514 49.2179 19.83C48.4979 19.146 47.3099 18.804 45.6539 18.804C42.4859 18.804 39.3899 19.668 36.3659 21.396L34.5839 15.024C35.9879 14.088 37.8239 13.332 40.0919 12.756C42.3959 12.144 44.6999 11.838 47.0039 11.838C50.2799 11.838 52.8359 12.432 54.6719 13.62C56.5079 14.808 57.7319 16.41 58.3439 18.426C58.9919 20.406 59.1179 22.566 58.7219 24.906L56.5079 39H47.5979L48.1919 35.166C47.3279 36.75 46.2299 37.884 44.8979 38.568C43.6019 39.252 42.1619 39.594 40.5779 39.594ZM43.9259 33.33C45.3299 33.33 46.4819 32.916 47.3819 32.088C48.2819 31.26 48.8399 30.18 49.0559 28.848L49.2179 27.66H46.3019C44.2859 27.66 42.8279 27.894 41.9279 28.362C41.0639 28.794 40.6319 29.514 40.6319 30.522C40.6319 31.422 40.9379 32.124 41.5499 32.628C42.1619 33.096 42.9539 33.33 43.9259 33.33ZM73.6453 39.594C71.3053 39.594 69.0553 39.342 66.8953 38.838C64.7713 38.334 62.9713 37.56 61.4953 36.516L64.1413 30.414C65.4733 31.242 66.9853 31.908 68.6773 32.412C70.4053 32.88 72.0433 33.114 73.5913 33.114C74.9953 33.114 76.0213 32.898 76.6693 32.466C77.3173 32.034 77.6413 31.494 77.6413 30.846C77.6413 30.378 77.4613 30.018 77.1013 29.766C76.7773 29.478 76.2193 29.262 75.4273 29.118L70.6213 28.308C68.3893 27.984 66.6613 27.21 65.4373 25.986C64.2493 24.726 63.6553 23.16 63.6553 21.288C63.6553 19.632 64.1413 18.084 65.1133 16.644C66.1213 15.204 67.5973 14.052 69.5413 13.188C71.5213 12.288 73.9873 11.838 76.9393 11.838C78.5593 11.838 80.2873 12.072 82.1233 12.54C83.9593 12.972 85.5973 13.656 87.0373 14.592L84.4453 20.586C83.2213 19.794 81.8893 19.218 80.4493 18.858C79.0453 18.462 77.6953 18.264 76.3993 18.264C74.9233 18.264 73.8433 18.498 73.1593 18.966C72.4753 19.434 72.1333 20.01 72.1333 20.694C72.1333 21.09 72.2593 21.432 72.5113 21.72C72.7993 22.008 73.2673 22.206 73.9153 22.314L78.7213 23.07C81.2053 23.502 83.0593 24.33 84.2833 25.554C85.5073 26.778 86.1193 28.308 86.1193 30.144C86.1193 33.24 84.9673 35.598 82.6633 37.218C80.3953 38.802 77.3893 39.594 73.6453 39.594ZM103.033 39.594C100.297 39.594 98.0647 39.108 96.3367 38.136C94.6087 37.164 93.4027 35.814 92.7187 34.086C92.0347 32.358 91.8727 30.378 92.2327 28.146L93.6367 19.506H88.6687L89.8027 12.432H94.7707L95.9587 4.71H105.571L104.383 12.432H112.051L110.917 19.506H103.249L101.899 27.768C101.683 29.244 101.899 30.306 102.547 30.954C103.231 31.566 104.221 31.872 105.517 31.872C106.381 31.872 107.335 31.71 108.379 31.386L108.649 38.514C107.893 38.874 107.011 39.144 106.003 39.324C104.995 39.504 104.005 39.594 103.033 39.594ZM113.551 39L114.847 30.954H123.271L126.241 12.432L119.815 15.78L116.899 8.274L130.939 0.929998H137.959L133.207 30.954H141.091L139.795 39H113.551Z" fill="#000C4A"/>
</svg>
