<svg width="70" height="28" viewBox="0 0 100 28" fill="none" xmlns="http://www.w3.org/2000/svg">
<path d="M0.95 27L5.206 0.209998H12.198L8.892 21.186H20.786L19.874 27H0.95ZM29.2585 27.418C28.0425 27.418 26.9532 27.1393 25.9905 26.582C25.0278 26.0247 24.2552 25.3027 23.6725 24.416C23.1152 23.504 22.8365 22.5287 22.8365 21.49C22.8365 19.514 23.6852 18.0827 25.3825 17.196C27.0798 16.284 29.7145 15.828 33.2865 15.828H35.8705L35.9085 15.486C36.0605 14.65 35.8705 13.9913 35.3385 13.51C34.8318 13.0287 33.9958 12.788 32.8305 12.788C30.6012 12.788 28.4225 13.396 26.2945 14.612L25.0405 10.128C26.0285 9.46933 27.3205 8.93733 28.9165 8.532C30.5378 8.10133 32.1592 7.886 33.7805 7.886C36.0858 7.886 37.8845 8.304 39.1765 9.14C40.4685 9.976 41.3298 11.1033 41.7605 12.522C42.2165 13.9153 42.3052 15.4353 42.0265 17.082L40.4685 27H34.1985L34.6165 24.302C34.0085 25.4167 33.2358 26.2147 32.2985 26.696C31.3865 27.1773 30.3732 27.418 29.2585 27.418ZM31.6145 23.01C32.6025 23.01 33.4132 22.7187 34.0465 22.136C34.6798 21.5533 35.0725 20.7933 35.2245 19.856L35.3385 19.02H33.2865C31.8678 19.02 30.8418 19.1847 30.2085 19.514C29.6005 19.818 29.2965 20.3247 29.2965 21.034C29.2965 21.6673 29.5118 22.1613 29.9425 22.516C30.3732 22.8453 30.9305 23.01 31.6145 23.01ZM52.5282 27.418C50.8815 27.418 49.2982 27.2407 47.7782 26.886C46.2835 26.5313 45.0168 25.9867 43.9782 25.252L45.8402 20.958C46.7775 21.5407 47.8415 22.0093 49.0322 22.364C50.2482 22.6933 51.4008 22.858 52.4902 22.858C53.4782 22.858 54.2002 22.706 54.6562 22.402C55.1122 22.098 55.3402 21.718 55.3402 21.262C55.3402 20.9327 55.2135 20.6793 54.9602 20.502C54.7322 20.2993 54.3395 20.1473 53.7822 20.046L50.4002 19.476C48.8295 19.248 47.6135 18.7033 46.7522 17.842C45.9162 16.9553 45.4982 15.8533 45.4982 14.536C45.4982 13.3707 45.8402 12.2813 46.5242 11.268C47.2335 10.2547 48.2722 9.444 49.6402 8.836C51.0335 8.20267 52.7688 7.886 54.8462 7.886C55.9862 7.886 57.2022 8.05067 58.4942 8.38C59.7862 8.684 60.9388 9.16533 61.9522 9.824L60.1282 14.042C59.2668 13.4847 58.3295 13.0793 57.3162 12.826C56.3282 12.5473 55.3782 12.408 54.4662 12.408C53.4275 12.408 52.6675 12.5727 52.1862 12.902C51.7048 13.2313 51.4642 13.6367 51.4642 14.118C51.4642 14.3967 51.5528 14.6373 51.7302 14.84C51.9328 15.0427 52.2622 15.182 52.7182 15.258L56.1002 15.79C57.8482 16.094 59.1528 16.6767 60.0142 17.538C60.8755 18.3993 61.3062 19.476 61.3062 20.768C61.3062 22.9467 60.4955 24.606 58.8742 25.746C57.2782 26.8607 55.1628 27.418 52.5282 27.418ZM73.2082 27.418C71.2829 27.418 69.7122 27.076 68.4962 26.392C67.2802 25.708 66.4315 24.758 65.9502 23.542C65.4689 22.326 65.3549 20.9327 65.6082 19.362L66.5962 13.282H63.1002L63.8982 8.304H67.3942L68.2302 2.87H74.9942L74.1582 8.304H79.5542L78.7562 13.282H73.3602L72.4102 19.096C72.2582 20.1347 72.4102 20.882 72.8662 21.338C73.3475 21.7687 74.0442 21.984 74.9562 21.984C75.5642 21.984 76.2355 21.87 76.9702 21.642L77.1602 26.658C76.6282 26.9113 76.0075 27.1013 75.2982 27.228C74.5889 27.3547 73.8922 27.418 73.2082 27.418ZM80.6099 27L81.5219 21.338H87.4499L89.5399 8.304L85.0179 10.66L82.9659 5.378L92.8459 0.209998H97.7859L94.4419 21.338H99.9899L99.0779 27H80.6099Z" fill="#000C4A"/>
</svg>
