<svg width="26" height="26" viewBox="0 0 30 20" fill="none" xmlns="http://www.w3.org/2000/svg">
<path d="M20.3335 8.6665C22.5468 8.6665 24.3202 6.87984 24.3202 4.6665C24.3202 2.45317 22.5468 0.666504 20.3335 0.666504C18.1202 0.666504 16.3335 2.45317 16.3335 4.6665C16.3335 6.87984 18.1202 8.6665 20.3335 8.6665ZM9.66683 8.6665C11.8802 8.6665 13.6535 6.87984 13.6535 4.6665C13.6535 2.45317 11.8802 0.666504 9.66683 0.666504C7.4535 0.666504 5.66683 2.45317 5.66683 4.6665C5.66683 6.87984 7.4535 8.6665 9.66683 8.6665ZM9.66683 11.3332C6.56016 11.3332 0.333496 12.8932 0.333496 15.9998V19.3332H19.0002V15.9998C19.0002 12.8932 12.7735 11.3332 9.66683 11.3332ZM20.3335 11.3332C19.9468 11.3332 19.5068 11.3598 19.0402 11.3998C20.5868 12.5198 21.6668 14.0265 21.6668 15.9998V19.3332H29.6668V15.9998C29.6668 12.8932 23.4402 11.3332 20.3335 11.3332Z" fill="#000C4A"/>
</svg>
