<svg width="30" height="20" viewBox="0 0 30 20" fill="none" xmlns="http://www.w3.org/2000/svg">
<path d="M20.3334 8.6665C22.5467 8.6665 24.32 6.87984 24.32 4.6665C24.32 2.45317 22.5467 0.666504 20.3334 0.666504C18.12 0.666504 16.3334 2.45317 16.3334 4.6665C16.3334 6.87984 18.12 8.6665 20.3334 8.6665ZM9.66671 8.6665C11.88 8.6665 13.6534 6.87984 13.6534 4.6665C13.6534 2.45317 11.88 0.666504 9.66671 0.666504C7.45337 0.666504 5.66671 2.45317 5.66671 4.6665C5.66671 6.87984 7.45337 8.6665 9.66671 8.6665ZM9.66671 11.3332C6.56004 11.3332 0.333374 12.8932 0.333374 15.9998V19.3332H19V15.9998C19 12.8932 12.7734 11.3332 9.66671 11.3332ZM20.3334 11.3332C19.9467 11.3332 19.5067 11.3598 19.04 11.3998C20.5867 12.5198 21.6667 14.0265 21.6667 15.9998V19.3332H29.6667V15.9998C29.6667 12.8932 23.44 11.3332 20.3334 11.3332Z" fill="#888A8F"/>
</svg>
