<svg width="16" height="17" viewBox="0 0 16 17" fill="none" xmlns="http://www.w3.org/2000/svg">
<g clip-path="url(#clip0_1696_4431)">
<path d="M7.33337 10.4997H8.66671V11.833H7.33337V10.4997ZM7.33337 5.16634H8.66671V9.16634H7.33337V5.16634ZM7.99337 1.83301C4.31337 1.83301 1.33337 4.81967 1.33337 8.49967C1.33337 12.1797 4.31337 15.1663 7.99337 15.1663C11.68 15.1663 14.6667 12.1797 14.6667 8.49967C14.6667 4.81967 11.68 1.83301 7.99337 1.83301ZM8.00004 13.833C5.05337 13.833 2.66671 11.4463 2.66671 8.49967C2.66671 5.55301 5.05337 3.16634 8.00004 3.16634C10.9467 3.16634 13.3334 5.55301 13.3334 8.49967C13.3334 11.4463 10.9467 13.833 8.00004 13.833Z" fill="#FF6969"/>
</g>
<defs>
<clipPath id="clip0_1696_4431">
<rect width="16" height="16" fill="white" transform="translate(0 0.5)"/>
</clipPath>
</defs>
</svg>
