<svg width="22" height="27" viewBox="0 0 22 27" fill="none" xmlns="http://www.w3.org/2000/svg">
<path d="M11 26.333C12.4667 26.333 13.6667 25.133 13.6667 23.6663H8.33334C8.33334 25.133 9.53334 26.333 11 26.333ZM19 18.333V11.6663C19 7.57301 16.8267 4.14634 13 3.23967V2.33301C13 1.22634 12.1067 0.333008 11 0.333008C9.89334 0.333008 9.00001 1.22634 9.00001 2.33301V3.23967C5.18668 4.14634 3.00001 7.55967 3.00001 11.6663V18.333L0.333344 20.9997V22.333H21.6667V20.9997L19 18.333ZM16.3333 19.6663H5.66668V11.6663C5.66668 8.35967 7.68001 5.66634 11 5.66634C14.32 5.66634 16.3333 8.35967 16.3333 11.6663V19.6663Z" fill="black"/>
</svg>
